<?xml version="1.0" standalone="no"?><!DOCTYPE svg PUBLIC "-//W3C//DTD SVG 1.1//EN" "http://www.w3.org/Graphics/SVG/1.1/DTD/svg11.dtd"><svg class="icon" width="200px" height="200.00px" viewBox="0 0 1024 1024" version="1.1" xmlns="http://www.w3.org/2000/svg"><path d="M96 864a32 32 0 1 0 0 64v-64z m832 64a32 32 0 1 0 0-64v64zM480 608a32 32 0 1 0 0 64v-64z m448 64a32 32 0 1 0 0-64v64zM96 96a32 32 0 0 0 0 64V96z m832 64a32 32 0 1 0 0-64v64z m-448 192a32 32 0 1 0 0 64v-64z m448 64a32 32 0 1 0 0-64v64zM169.376 617.376a32 32 0 1 0 45.248 45.248l-45.248-45.248zM320 512l22.624 22.624a32 32 0 0 0 0-45.248L320 512z m-105.376-150.624a32 32 0 0 0-45.248 45.248l45.248-45.248zM96 928h832v-64H96v64z m384-256h448v-64H480v64zM96 160h832V96H96v64z m384 256h448v-64H480v64z m-265.376 246.624l128-128-45.248-45.248-128 128 45.248 45.248z m-45.248-256l128 128 45.248-45.248-128-128-45.248 45.248z" fill="#000000" /></svg>